<?xml version="1.0" encoding="utf-8"?>
<!-- Generator: Adobe Illustrator 22.0.1, SVG Export Plug-In . SVG Version: 6.00 Build 0)  -->
<svg version="1.1" xmlns="http://www.w3.org/2000/svg" xmlns:xlink="http://www.w3.org/1999/xlink" x="0px" y="0px"
	 viewBox="0 0 93.6 93.9" style="enable-background:new 0 0 93.6 93.9;" xml:space="preserve">
<style type="text/css">
	.st0{display:none;}
	.st1{fill:#1E90FF;}
</style>
<g id="Layer_3" class="st0">
</g>
<g id="Layer_2_1_">
	<g>
		<path class="st1" d="M29.4,61.6l-12.7,8.5c-1.7-2.5,0.2-6.6,4.1-9.3l8.5-5.7V23.4c4.7,0,8.5,3.8,8.5,8.5v17.3l5.3-3.6v-6.8
			c0-4.7,3.8-8.5,8.5-8.5V40l4.8-3.2V2c-3-0.6-6.1-0.9-9.3-0.9C21.7,1,1,21.7,1,47.2c0,19.2,11.7,35.7,28.4,42.6V61.6z"/>
		<path class="st1" d="M62.8,3.7c1.4,1.5,2.3,3.6,2.3,5.9v21.4l11.4-7.7c1.7,2.5-0.2,6.6-4,9.3l-7.3,4.9v39.4
			c-4.7,0-8.5-3.8-8.5-8.5v-25l-4.8,3.2v7.8c0,4.7-3.8,8.5-8.5,8.5V52.3l-5.3,3.6v27.3c0,3.6-2.3,6.7-5.4,8
			c4.6,1.6,9.6,2.4,14.7,2.4c25.5,0,46.2-20.7,46.2-46.2C93.4,27.2,80.6,10.1,62.8,3.7z"/>
	</g>
</g>
</svg>
