<?xml version="1.0" encoding="utf-8"?>
<!-- Generator: Adobe Illustrator 22.0.1, SVG Export Plug-In . SVG Version: 6.00 Build 0)  -->
<svg version="1.1" id="Layer_2_1_" xmlns="http://www.w3.org/2000/svg" xmlns:xlink="http://www.w3.org/1999/xlink" x="0px" y="0px"
	 viewBox="0 0 126.8 123.1" style="enable-background:new 0 0 126.8 123.1;" xml:space="preserve">
<style type="text/css">
	.st0{fill:none;}
</style>
<path d="M100.3,31.8l-15,10.1V13.7c0-6.2-5-11.3-11.3-11.3l0,0v47.1l-6.3,4.2V41.2c-6.2,0-11.3,5-11.3,11.3v8.9l-7,4.7V43.3
	c0-6.2-5-11.3-11.3-11.3l0,0v41.7l-11.3,7.6c-5.2,3.5-7.6,8.9-5.4,12.2l16.7-11.2v39.6l0,0c6.2,0,11.3-5,11.3-11.3V74.7l7-4.7V84
	l0,0c6.2,0,11.3-5,11.3-11.3V62.4l6.3-4.2v33c0,6.2,5,11.3,11.3,11.3V50.5L95,44C100.1,40.5,102.5,35.1,100.3,31.8z"/>
<rect id="_x3C_Slice_x3E_" x="0.1" y="-81.4" class="st0" width="208" height="202"/>
</svg>
